<?xml version="1.0" encoding="utf-8" ?>
<svg xmlns="http://www.w3.org/2000/svg" xmlns:xlink="http://www.w3.org/1999/xlink" width="512" height="512">
    <defs>
        <linearGradient id="gradient_0" gradientUnits="userSpaceOnUse" x1="65.289101" y1="527.28101" x2="446.85199"
            y2="-17.732901">
            <stop offset="0" stop-color="#FC2570" />
            <stop offset="1" stop-color="#00EBB3" />
        </linearGradient>
    </defs>
    <path fill="url(#gradient_0)"
        d="M7.28857 83.6131L7.24871 57.5165C7.24529 50.7305 6.70734 43.4413 7.64198 36.7188C9.95596 20.0751 22.7271 8.61496 39.2027 6.75289C44.3584 6.1702 49.842 6.50223 55.0332 6.50254L472.532 6.45154C488.109 6.54194 502.516 20.2313 504.155 35.5582C504.802 41.608 504.474 47.8851 504.475 53.9689L504.407 468.8C503.904 490.114 489.197 503.543 468.513 503.598L410.576 503.612L52.8081 504.146C48.6845 504.143 44.2103 504.458 40.125 503.927C24.0295 501.836 10.4906 490.597 7.88902 474.152C6.5915 465.951 7.24947 457.064 7.2472 448.759L7.25588 252.662L7.28549 122.667L7.28857 83.6131ZM45.4502 28.3658C29.9284 29.234 28.7477 36.0303 28.9082 49.4555L28.963 66.7189L464.889 64.7002L482.772 64.7024L482.791 46.188C482.794 36.8168 483.649 29.9262 472.233 29.1414C468.205 28.8645 464.096 28.9931 460.059 28.9875L45.4502 28.3658Z" />
    <path fill="#118AB2"
        d="M90.675 38.8345C93.3005 38.6142 96.2426 38.3837 98.803 39.1027L99.25 39.2357C102.698 40.2112 105.522 42.3093 106.687 45.8535L106.815 46.25C107.423 47.963 107.554 50.4219 106.923 52.1623L106.791 52.5C105.29 56.5837 101.295 57.9755 97.3105 58.7026C76.1096 60.244 74.7186 41.3244 90.675 38.8345Z" />
    <path fill="#118AB2"
        d="M167.204 38.5841C170.986 38.2156 175.759 38.3367 179.121 40.2573C183.259 42.6207 184.881 49.5643 182.216 53.5271C179.917 56.9466 176.642 58.0333 172.801 58.7343C168.088 58.8832 163.733 58.6669 159.862 55.6014C152.112 49.4652 156.798 39.6539 167.204 38.5841Z" />
    <path fill="#118AB2"
        d="M129.444 38.8379C133.252 38.7345 137.808 38.191 141.183 40.3186C145.733 43.1861 146.765 50.5649 143.476 54.7338C140.98 57.8973 137.387 58.3168 133.672 58.7007C129.979 58.8173 125.524 58.4168 122.362 56.3663C117.864 53.4503 116.109 47.3463 119.526 42.9123C122.071 39.609 125.609 39.2695 129.444 38.8379Z" />
    <path fill="#118AB2"
        d="M52.4362 38.5936C60.2938 37.9041 70.9576 39.69 69.3299 49.9702L69.2618 50.375C68.3868 55.86 63.6015 57.9899 58.5914 58.7329C53.6026 58.7991 48.1756 58.5339 44.0709 55.3229C35.9148 48.9426 42.8538 39.677 52.4362 38.5936Z" />
    <path fill="white"
        d="M29.3752 90.3301L29.68 88.5472C34.1139 87.6991 39.0668 88.0442 43.5683 88.0393L148.346 87.9958C152.018 87.9762 155.598 87.3636 159.288 87.3453L482.776 86.7832L482.698 466.227C482.607 468.848 482.485 472.075 481.141 474.392L480.948 474.732C477.455 480.672 472.672 480.917 466.656 480.862L410.121 480.806L45.9417 480.404C38.2408 480.396 32.9769 481.15 30.0666 471.563L29.9394 471.125C29.0814 468.287 29.384 464.981 29.3828 462.033L29.3471 241.165L29.3437 112.842L29.3752 90.3301Z" />
    <defs>
        <linearGradient id="gradient_1" gradientUnits="userSpaceOnUse" x1="188.98199" y1="474.21399" x2="370.20999"
            y2="139.95399">
            <stop offset="0" stop-color="#EE1F6F" />
            <stop offset="1" stop-color="#FFE863" />
        </linearGradient>
    </defs>
    <path fill="url(#gradient_1)"
        d="M158.878 325.591C161.961 324.201 165.361 323.337 168.58 322.295L190.388 315.37C201.2 311.821 198.7 311.18 205.365 303.251L200.167 296.714C187.703 280.431 173.34 246.813 176.676 225.532L177.246 223C178.192 219.542 180.175 216.697 179.402 213.057L175.421 190.437C171.66 163.224 177.335 140.513 199.89 122.479C220.499 106.002 247.233 103.772 272.628 103.729C300.101 103.683 321.14 104.155 332.551 132.13C342.342 156.131 341.137 180.205 335.003 204.761L332.837 212.762C332.251 214.805 331.721 215.318 332.627 217.207L333.956 220.23C341.246 239.07 326.617 274.767 316.265 291.01C313.09 295.992 309.328 300.313 305.301 304.605C310.35 310.313 311.629 311.92 319.008 314.495L329.025 317.81C361.315 327.926 388.244 333.776 397.893 372.42C398.838 376.205 399.408 379.837 399.437 383.742L399.484 416.332C399.49 420.458 399.88 424.916 399.55 429.007C398.855 437.641 390.449 437.716 384.456 437.716L300.822 437.707L142.283 437.723C136.049 437.722 129.516 438.118 123.31 437.65C113.62 436.918 112.502 428.913 112.495 421.553L112.511 391.827C112.515 387.922 112.4 383.949 112.828 380.061C115.382 356.898 130.322 336.807 151.924 328.06C154.09 327.183 156.59 326.027 158.878 325.591Z" />
    <path fill="white"
        d="M226.303 315.919C229.071 316.944 231.665 318.556 234.47 319.606C247.175 324.363 259.704 325.085 272.727 321.178C285.136 317.456 282.835 313.044 292.402 322.212C292.08 323.91 276.425 339.339 273.932 341.957L256.151 360.926C252.101 355.963 247.23 351.467 242.744 346.894C234.859 338.855 227.083 330.814 218.627 323.363C221.567 321.123 223.964 318.798 226.303 315.919Z" />
    <path fill="white"
        d="M264.563 128.314L295.375 128.392C310.317 129.036 315.191 151.992 316.055 163.932C316.4 168.695 316.011 173.638 315.798 178.41C313.874 173.396 311.588 166.775 307.26 163.313C300.255 157.712 289.198 164.949 282.065 167.093C273.631 169.628 264.515 169.465 255.813 169.49L239.789 169.313C232.179 168.894 214.655 166.352 207.679 168.097L206.312 168.448C201.478 169.826 199.158 174.269 196.967 178.375C194.263 154.544 214.692 136.138 236.221 131.039C245.55 128.829 255.023 128.356 264.563 128.314Z" />
    <path fill="white"
        d="M178.508 343.126L199.203 337.262L243.894 381.532C245.471 384.97 244.617 388.043 244.607 391.794L244.659 414.41L135.83 414.342L135.742 395.498C135.747 361.14 146.161 354.352 178.508 343.126Z" />
    <path fill="white"
        d="M267.558 401.755L267.564 387.853C267.565 385.933 266.828 383.623 268.349 382.126L313.241 336.887C335.027 345.122 362.382 345.959 373.262 370.25C376.325 377.09 376.575 384.207 376.598 391.57L376.638 410.921C376.639 412.057 376.771 413.382 376.559 414.493L322.597 414.343L267.54 414.341L267.558 401.755Z" />
    <path fill="white"
        d="M293.394 188.125C296.744 188.062 306.021 218.862 307.463 223.019L313.695 239.898L306.05 259.85C299.445 276.423 290.591 291.675 272.338 297.065C256.487 301.745 239.881 299.207 226.217 290.02C225.087 288.933 223.739 288.044 222.592 286.946C211.265 276.102 204.682 258.752 200.306 244.146C199.797 242.45 198.646 239.81 199.117 238.046L199.203 237.75C200.32 233.78 202.106 229.936 203.457 226.027C205.247 220.854 213.545 194.295 217.918 191.66C218.07 191.568 219.032 191.645 219.261 191.647L225.427 191.817C228.64 191.937 231.804 192.495 235.004 192.677C256.383 193.895 272.703 194.695 293.394 188.125Z" />
</svg>